<?xml version="1.0" encoding="UTF-8"?><svg id="Layer_2" xmlns:xlink="http://www.w3.org/2000/xlink"  xmlns="http://www.w3.org/2000/svg" viewBox="0 0 1600.51 414.07"><defs><style>.cls-1{fill:#777;}</style></defs><g id="Layer_1-2"><g><path d="M519.62,292.32V86.22h62.1v201.6c0,41.85,23.4,63.9,60.3,63.9s60.75-22.05,60.75-63.9V86.22h62.1v206.1c0,78.3-54.45,120.15-122.85,120.15s-122.4-41.85-122.4-120.15Z"/><path d="M861.17,332.37c1.35,17.55,14.4,33.75,40.5,33.75,19.8,0,29.25-10.35,29.25-22.05,0-9.9-6.75-18-23.85-21.6l-29.25-6.75c-42.75-9.45-62.1-35.1-62.1-66.15,0-39.6,35.1-72.45,82.8-72.45,63,0,84.15,40.05,86.85,63.9l-49.95,11.25c-1.8-13.05-11.25-29.7-36.45-29.7-15.75,0-28.35,9.45-28.35,22.05,0,10.8,8.1,17.55,20.25,19.8l31.5,6.75c43.65,9,65.7,35.55,65.7,67.95,0,36-27.9,72.9-85.95,72.9-66.6,0-89.55-43.2-92.25-68.4l51.3-11.25Z"/><path d="M1177.52,381.42c-12.15,20.7-37.8,29.7-61.2,29.7-53.55,0-84.15-39.15-84.15-87.3V183.87h59.85v127.8c0,24.75,12.6,44.55,40.5,44.55s41.85-18,41.85-43.65V183.87h59.85v181.35c0,17.1,1.35,32.4,2.25,40.05h-57.15c-.9-4.5-1.8-14.85-1.8-23.85Z"/><path d="M1350.77,277.92l54.45-8.1c12.6-1.8,16.65-8.1,16.65-15.75,0-15.75-12.15-28.8-37.35-28.8s-40.5,16.65-42.3,36l-53.1-11.25c3.6-34.65,35.55-72.9,94.95-72.9,70.2,0,96.3,39.6,96.3,84.15v108.9c0,11.7,1.35,27.45,2.7,35.1h-54.9c-1.35-5.85-2.25-18-2.25-26.55-11.25,17.55-32.4,32.85-65.25,32.85-47.25,0-76.05-31.95-76.05-66.6,0-39.6,29.25-61.65,66.15-67.05Zm71.1,37.8v-9.9l-49.95,7.65c-15.3,2.25-27.45,10.8-27.45,27.9,0,13.05,9.45,25.65,28.8,25.65,25.2,0,48.6-12.15,48.6-51.3Z"/><path d="M1540.66,405.27V79.47h59.85V405.27h-59.85Z"/></g><g><g><path d="M68.09,305.92c.49,.28,.99,.54,1.49,.79h0c-.5-.26-1-.52-1.49-.79Z"/><path d="M270.08,125.35v171.21c0,3.18-.11,6.29-.3,9.35-4.7,70.56-62.79,108.16-134.99,108.16S0,373.15,0,296.57V125.35c0-16.77,15.3-30.37,34.19-30.37,6.74,0,13.02,1.73,18.33,4.73,0,0,0,0,.02,0,2.11,1.19,4.05,2.57,5.82,4.15,6.18,5.49,10.02,13.09,10.02,21.47v166.82c0,5.16,.41,10,1.21,14.54-.5-.25-1-.51-1.49-.78,.49,.28,.99,.54,1.49,.79h0c5.53,31.48,29.69,47.95,65.2,47.95,41.62,0,66.9-21.57,66.9-62.51V125.35c0-16.77,15.31-30.37,34.19-30.37,6.13,0,11.87,1.43,16.84,3.94,2.71,1.35,5.16,3.02,7.35,4.95,6.18,5.5,10.02,13.1,10.02,21.48Z"/><path d="M69.58,306.7h0c-.5-.24-1-.5-1.49-.78,.49,.27,.99,.53,1.49,.78Z"/></g><g><path class="cls-1" d="M301.05,108.15c-.49-.28-.99-.54-1.49-.79h0c.5,.26,1,.52,1.49,.79Z"/><path class="cls-1" d="M99.07,288.72V117.51c0-3.18,.11-6.29,.3-9.35C104.07,37.6,162.16,0,234.35,0c74.84,0,134.79,40.92,134.79,117.51v171.21c0,16.77-15.3,30.37-34.19,30.37-6.74,0-13.02-1.73-18.33-4.73,0,0,0,0-.02,0-2.11-1.19-4.05-2.57-5.82-4.15-6.18-5.49-10.02-13.09-10.02-21.47V121.91c0-5.16-.41-10-1.21-14.54,.5,.25,1,.51,1.49,.78-.49-.28-.99-.54-1.49-.79h0c-5.53-31.48-29.69-47.95-65.2-47.95-41.62,0-66.9,21.57-66.9,62.51v166.81c0,16.77-15.31,30.37-34.19,30.37-6.13,0-11.87-1.43-16.84-3.94-2.71-1.35-5.16-3.02-7.35-4.95-6.18-5.5-10.02-13.1-10.02-21.48Z"/><path class="cls-1" d="M299.56,107.37h0c.5,.24,1,.5,1.49,.78-.49-.27-.99-.53-1.49-.78Z"/></g></g></g></svg>